<?xml version="1.0" encoding="UTF-8"?>
<svg version="1.1" xmlns="http://www.w3.org/2000/svg" width="1280" height="1280">
<path d="M0 0 C1.2571582 0.12890625 2.51431641 0.2578125 3.80957031 0.390625 C34.98884354 3.61711674 65.66885845 9.05255137 96 17 C97.05413086 17.27424805 98.10826172 17.54849609 99.19433594 17.83105469 C122.92961314 24.0685514 146.28768633 31.73389385 168.94873047 41.16113281 C171.98393634 42.40238101 175.05270229 43.54117339 178.125 44.6875 C182.61766946 46.40495086 186.87982111 48.34390572 191.1484375 50.5546875 C194.85268624 52.43218344 198.61212454 54.18121654 202.375 55.9375 C211.96124653 60.43305391 221.41692539 64.94482604 230.44140625 70.50390625 C233.21537512 72.1259369 236.04673396 73.53490181 238.9375 74.9375 C243.79199705 77.32475584 248.29825356 79.99084871 252.8203125 82.953125 C256.05437787 85.03500492 259.33300568 87.02448708 262.62792969 89.0078125 C269.44938599 93.11922132 276.06405576 97.32348245 282.4375 102.11328125 C285.1889395 104.13911247 288.01346874 106.00829797 290.875 107.875 C297.51443719 112.2611567 303.75612211 117.07603048 310 122 C310.85335937 122.66902344 311.70671875 123.33804688 312.5859375 124.02734375 C318.93760274 129.05317595 325.11893017 134.27686873 331.27929688 139.53369141 C333.01105917 141.00942415 334.74742194 142.4796012 336.484375 143.94921875 C342.53283354 149.08058249 348.5096346 154.28483081 354.375 159.625 C355.22384766 160.38864868 355.22384766 160.38864868 356.08984375 161.16772461 C357.43294791 162.40332152 358.72232656 163.69685799 360 165 C360 165.66 360 166.32 360 167 C360.54140625 167.2165625 361.0828125 167.433125 361.640625 167.65625 C364.81645344 169.46499997 367.20728081 171.91723799 369.75 174.5 C370.25660156 174.99886719 370.76320313 175.49773437 371.28515625 176.01171875 C375 179.74658861 375 179.74658861 375 182 C375.53238281 182.19722656 376.06476563 182.39445313 376.61328125 182.59765625 C380.08987627 184.6403692 382.49399622 187.46693213 385.1875 190.4375 C385.76338867 191.06495117 386.33927734 191.69240234 386.93261719 192.33886719 C391.08813207 196.90228537 395.03478222 201.60597777 398.890625 206.42578125 C401.01266552 209.01545662 403.23067513 211.47645631 405.5 213.9375 C409.53707575 218.37338566 413.13211002 223.03716963 416.68359375 227.8671875 C418.66468573 230.54650583 420.68411091 233.18419635 422.73291016 235.8112793 C428.09550429 242.69379173 433.08056687 249.79285846 438 257 C438.80566309 258.15478376 439.61297595 259.30841814 440.421875 260.4609375 C447.04644998 269.91061993 447.04644998 269.91061993 449.0625 273.5625 C450.86244098 276.75594367 452.81506095 279.72022147 454.875 282.75 C458.62754418 288.33017218 461.86791114 294.05595291 465 300 C465.91453515 301.66783723 466.83126524 303.33447246 467.75 305 C509.84887305 382.40053223 535.23817237 466.06304035 542 554 C542.09716309 555.2571582 542.19432617 556.51431641 542.29443359 557.80957031 C543.23506626 571.06521247 543.24342856 584.3416773 543.25 597.625 C543.25101212 599.47431625 543.25101212 599.47431625 543.25204468 601.36099243 C543.23331616 623.0347884 542.41454781 644.4598431 540 666 C539.91278687 666.7782312 539.82557373 667.5564624 539.73571777 668.35827637 C532.81111696 729.25558528 518.07153537 794.09201383 489.99829102 849.02270508 C488.95569352 851.08775695 487.96834968 853.1723023 486.9921875 855.26953125 C480.408875 869.40899079 473.56751884 883.46940772 465.359375 896.75 C463.82329826 899.29247184 462.40912198 901.88513447 461 904.5 C456.42313277 912.95416149 451.38847552 921.00872103 446.01171875 928.9765625 C444.07400573 931.88877585 442.21926308 934.84050873 440.375 937.8125 C437.95156933 941.66017922 435.35462122 945.03876888 432.31640625 948.41015625 C430.66047524 950.41004919 429.54691227 952.63141854 428.328125 954.9140625 C425.77594178 958.92249144 422.53469444 962.44222184 419.4375 966.03515625 C416.97717178 968.92528462 416.97717178 968.92528462 415.03125 971.96484375 C412.74468921 975.38149323 410.20151373 978.40983969 407.5 981.5 C406.42953549 982.7355454 405.35922748 983.97122641 404.2890625 985.20703125 C403.47163574 986.14796631 403.47163574 986.14796631 402.63769531 987.10791016 C401.04898825 988.94340206 399.47149191 990.78780406 397.8984375 992.63671875 C390.19981825 1001.68380256 382.4160536 1010.60635418 374 1019 C372.39924129 1020.61148434 370.79899413 1022.22347696 369.19921875 1023.8359375 C367.36205135 1025.68236349 365.52480955 1027.52871546 363.6875 1029.375 C362.31948242 1030.75558594 362.31948242 1030.75558594 360.92382812 1032.1640625 C355.78071098 1037.32561376 350.56067245 1042.29199886 345 1047 C343.88247888 1047.96185211 342.76527948 1048.92407815 341.6484375 1049.88671875 C340.55770037 1050.82078996 339.46654546 1051.75437352 338.375 1052.6875 C337.15879156 1053.72779139 335.94264764 1054.76815823 334.7265625 1055.80859375 C334.11200195 1056.33437012 333.49744141 1056.86014648 332.86425781 1057.40185547 C331.0183072 1058.98430606 329.1765159 1060.57146204 327.3359375 1062.16015625 C309.60009081 1077.45555427 309.60009081 1077.45555427 304.52734375 1080.46875 C301.84277275 1082.09525979 299.53630482 1083.93064726 297.125 1085.9375 C294.25754732 1088.2689007 291.50033769 1090.42509467 288.25 1092.1875 C284.90802397 1093.91996338 284.90802397 1093.91996338 282 1096.5 C279.45294674 1098.62254439 277.01474383 1100.1919728 274.1171875 1101.76953125 C271.3259367 1103.39175265 268.67621547 1105.19472248 266 1107 C259.63571208 1111.28229038 259.63571208 1111.28229038 256.4375 1113.0625 C253.47045957 1114.73483188 250.66093577 1116.51256123 247.8125 1118.375 C243.08592793 1121.40386455 238.26188686 1123.96133353 233.21484375 1126.41015625 C229.70023524 1128.14824332 226.25739371 1130.00437355 222.8125 1131.875 C215.98534435 1135.56235626 209.01475946 1138.88648149 201.97265625 1142.140625 C199.39421273 1143.33349143 196.8528218 1144.57625514 194.32421875 1145.87109375 C178.36053958 1153.90252206 161.46612794 1160.58432815 144.50341797 1166.16699219 C141.85886821 1167.04696135 139.22833172 1167.96223931 136.59765625 1168.8828125 C75.34782459 1190.12407133 10.77188605 1200.18942579 -53.97241211 1200.18530273 C-57.76753217 1200.18747427 -61.56235347 1200.20565496 -65.35742188 1200.22460938 C-89.22099764 1200.28094313 -112.91045819 1198.88045378 -136.5625 1195.6875 C-137.37930237 1195.5795108 -138.19610474 1195.47152161 -139.03765869 1195.36026001 C-191.47720862 1188.41283777 -241.87887622 1174.71835181 -290.8125 1154.625 C-291.66192169 1154.2764798 -292.51134338 1153.92795959 -293.38650513 1153.56887817 C-295.82874363 1152.56383603 -298.26848 1151.55301493 -300.70703125 1150.5390625 C-301.4267511 1150.24145523 -302.14647095 1149.94384796 -302.88800049 1149.63722229 C-307.09276754 1147.87563019 -311.18070129 1145.95683988 -315.24464417 1143.89120483 C-317.22855617 1142.88396064 -319.2337323 1141.9321879 -321.25390625 1141 C-321.96353516 1140.67 -322.67316406 1140.34 -323.40429688 1140 C-324.84631556 1139.33184292 -326.2890285 1138.66518219 -327.73242188 1138 C-331.66640462 1136.16724371 -335.47290185 1134.22639224 -339.21948242 1132.03613281 C-341.13885218 1130.91919804 -343.07759152 1129.84354927 -345.0234375 1128.7734375 C-373.00268676 1113.36239 -373.00268676 1113.36239 -383.75 1105.57421875 C-386.08468206 1103.94075196 -388.47615379 1102.49700334 -390.9375 1101.0625 C-397.43886829 1097.2375625 -403.59539039 1092.84181817 -409.38671875 1088.0078125 C-411.87482049 1086.09617678 -414.43740431 1084.64250906 -417.17529297 1083.125 C-420.43706488 1081.11399585 -423.21434438 1078.54851577 -426.0625 1076 C-430.21578464 1072.30819143 -434.3480211 1069.06425171 -439 1066 C-441.03081571 1064.35806389 -443.02418784 1062.70468287 -445 1061 C-445.82552368 1060.29302979 -445.82552368 1060.29302979 -446.66772461 1059.57177734 C-447.83786014 1058.5694628 -449.00702866 1057.56601839 -450.17529297 1056.56152344 C-452.04681051 1054.95994113 -453.93012126 1053.37321526 -455.81640625 1051.7890625 C-457.0651901 1050.73447675 -458.31389019 1049.67979181 -459.5625 1048.625 C-460.43745117 1047.89410156 -460.43745117 1047.89410156 -461.33007812 1047.1484375 C-464.64286261 1044.33431019 -467.323036 1041.44751867 -470 1038 C-471.21693343 1036.8393114 -472.46681457 1035.71199593 -473.75 1034.625 C-474.44480469 1034.02816406 -475.13960937 1033.43132812 -475.85546875 1032.81640625 C-477.2515509 1031.63393229 -478.64987821 1030.45410231 -480.05078125 1029.27734375 C-484.08014213 1025.842607 -487.65006518 1022.27956781 -491.078125 1018.24609375 C-493.37931932 1015.55668982 -495.74651482 1012.93375956 -498.125 1010.3125 C-498.93195313 1009.42175781 -499.73890625 1008.53101563 -500.5703125 1007.61328125 C-502.1811513 1005.88072312 -503.82328783 1004.17671217 -505.49609375 1002.50390625 C-521.3744856 986.6255144 -521.3744856 986.6255144 -525.24609375 979.8046875 C-527.68828892 975.89935091 -530.65507591 972.51238138 -533.625 969 C-539.53735254 961.91459176 -544.87471671 954.67829094 -550 947 C-551.13692367 945.35930153 -552.27388883 943.7186237 -553.41601562 942.08154297 C-565.61249587 924.59195651 -565.61249587 924.59195651 -569.0625 918.4375 C-570.74124251 915.45908587 -572.51810718 912.61827235 -574.375 909.75 C-577.21339894 905.31537671 -579.8111614 900.81799796 -582.28515625 896.171875 C-583.57551176 893.7851582 -584.89318785 891.42894692 -586.24609375 889.078125 C-592.03970232 878.95396355 -597.05468991 868.62723226 -601.7734375 857.9609375 C-603.71979472 853.57026879 -605.82224325 849.27944537 -608 845 C-612.6906362 835.45120488 -616.32077187 825.4839677 -620.04638672 815.53173828 C-620.87298959 813.33719865 -621.71418662 811.14952404 -622.56640625 808.96484375 C-639.96001033 763.893134 -650.57374601 715.94339161 -656 668 C-656.0825 667.29170044 -656.165 666.58340088 -656.25 665.8536377 C-658.77323311 644.09450689 -659.28135833 622.35154495 -659.30962753 600.46434784 C-659.31243886 598.48064326 -659.31800823 596.49694321 -659.32363892 594.51324463 C-659.36040783 569.71605052 -658.18686549 545.01816039 -654.8125 520.4375 C-654.70740112 519.6562677 -654.60230225 518.8750354 -654.49401855 518.07012939 C-649.15209842 478.6402169 -640.34401269 439.75757313 -627.12841797 402.21484375 C-626.10743968 399.30609383 -625.11193829 396.39049498 -624.12890625 393.46875 C-619.25609759 379.08143992 -613.96984458 364.63688884 -607.04272461 351.09960938 C-605.84066017 348.6791565 -604.73337793 346.22605584 -603.6328125 343.7578125 C-603.01599609 342.37529297 -603.01599609 342.37529297 -602.38671875 340.96484375 C-601.5497581 339.08103449 -600.71638519 337.19562688 -599.88671875 335.30859375 C-597.37998715 329.70944559 -594.58681391 324.47533358 -591.36572266 319.25537109 C-589.59879427 316.33744395 -588.10179799 313.32353897 -586.625 310.25 C-581.38760679 299.56930651 -575.44925385 289.4645291 -568.75 279.625 C-567.31496794 277.4724519 -565.99846168 275.32533679 -564.75 273.0625 C-563.05536039 270.09688069 -561.12865733 267.66082166 -559 265 C-558.08119149 263.35927051 -557.16293867 261.71822158 -556.25 260.07421875 C-551.79539826 252.68236399 -546.24119094 245.93556224 -540.76171875 239.2890625 C-538.95371857 237.03212253 -538.95371857 237.03212253 -537.51953125 234.5234375 C-535.87729647 231.79623012 -534.03179609 229.45010705 -532 227 C-531.20207031 226.03707031 -530.40414062 225.07414063 -529.58203125 224.08203125 C-528.72213687 223.05403228 -527.86144602 222.02669906 -527 221 C-526.57122559 220.48872559 -526.14245117 219.97745117 -525.70068359 219.45068359 C-522.96261022 216.19165386 -520.2100856 212.94515632 -517.45019531 209.70458984 C-515.98196961 207.97880671 -514.51826467 206.24925728 -513.0546875 204.51953125 C-504.71053669 194.68779058 -496.13335712 185.10878687 -487 176 C-485.39924129 174.38851566 -483.79899413 172.77652304 -482.19921875 171.1640625 C-480.36205135 169.31763651 -478.52480955 167.47128454 -476.6875 165.625 C-475.77548828 164.70460937 -474.86347656 163.78421875 -473.92382812 162.8359375 C-468.78027636 157.67395006 -463.5552181 152.71478836 -458 148 C-456.89369665 147.03872009 -455.78819655 146.07651478 -454.68359375 145.11328125 C-441.2344097 133.48111109 -427.29276026 122.57331059 -413 112 C-411.98808594 111.24589844 -410.97617187 110.49179688 -409.93359375 109.71484375 C-404.68967041 105.84344089 -399.34112549 102.23911126 -393.81640625 98.78125 C-390.84405705 96.90137311 -387.920409 94.95950023 -385 93 C-376.77068321 87.49963084 -368.54776966 82.19667811 -359.8125 77.53125 C-356.85328568 75.9201222 -353.95956944 74.22013498 -351.0625 72.5 C-345.17231064 69.04320933 -339.13175905 66.00064804 -333 63 C-330.72871596 61.85506033 -328.4578997 60.70919231 -326.1875 59.5625 C-313.63508152 53.29945034 -300.90417488 47.5340136 -287.9375 42.1875 C-286.84674164 41.73719925 -286.84674164 41.73719925 -285.73394775 41.27780151 C-270.71413103 35.10361297 -255.51450227 29.80718541 -240 25 C-238.95199219 24.67451172 -237.90398437 24.34902344 -236.82421875 24.01367188 C-229.91478282 21.88939729 -222.97471525 19.8984432 -216 18 C-214.93700684 17.7102832 -213.87401367 17.42056641 -212.77880859 17.12207031 C-193.69527627 11.98947048 -174.47845406 8.22668501 -155 5 C-153.83065918 4.80277344 -152.66131836 4.60554688 -151.45654297 4.40234375 C-102.04354619 -3.79612881 -49.7813383 -5.38018575 0 0 Z M-222.6875 87.5625 C-232.29933984 99.12372905 -237.95104173 113.14611014 -243.875 126.8125 C-244.70554808 128.71240519 -245.53686247 130.61197555 -246.36889648 132.51123047 C-248.08013785 136.42032036 -249.78719883 140.33119325 -251.49072266 144.24365234 C-253.85138416 149.66334955 -256.22557918 155.07700396 -258.60546875 160.48828125 C-259.35107546 162.18383734 -260.09668094 163.87939398 -260.84228516 165.57495117 C-261.20864075 166.40803802 -261.57499634 167.24112488 -261.95245361 168.09945679 C-263.81572059 172.33870418 -265.67543994 176.57950654 -267.53515625 180.8203125 C-271.64567187 190.19310442 -275.75936974 199.56449651 -279.87399292 208.93548584 C-281.74946579 213.20693033 -283.62472204 217.47846993 -285.5 221.75 C-286.24999896 223.45833379 -286.99999896 225.16666712 -287.75 226.875 C-288.12125 227.720625 -288.4925 228.56625 -288.875 229.4375 C-363.12500172 398.56250391 -363.12500172 398.56250391 -437.37501526 567.68753052 C-438.12496856 569.3957603 -438.87491769 571.10399191 -439.62486267 572.81222534 C-441.5005431 577.08465801 -443.37629593 581.35705885 -445.25219727 585.62939453 C-448.61912889 593.29771808 -451.9855728 600.96625353 -455.34925842 608.63600159 C-457.21164387 612.88249311 -459.07447852 617.12878748 -460.9375 621.375 C-461.48946548 622.63311996 -461.48946548 622.63311996 -462.05258179 623.91665649 C-467.13764238 635.50511096 -472.24399779 647.08398369 -477.36523438 658.65649414 C-481.24993311 667.43482025 -485.12713534 676.2164471 -489 685 C-489.34067505 685.772229 -489.6813501 686.54445801 -490.03234863 687.34008789 C-491.89852711 691.57185434 -493.75894846 695.80605333 -495.60971069 700.04458618 C-496.40086618 701.8537291 -497.19701712 703.660685 -497.9934082 705.4675293 C-504.47253485 720.35776832 -510.2835599 734.55467637 -503.99609375 750.5546875 C-499.62309763 759.12749177 -492.99984072 763.89934816 -484 767 C-474.59334126 769.45744891 -461.75812969 769.54447684 -453 765 C-452.27941406 764.63261719 -451.55882812 764.26523437 -450.81640625 763.88671875 C-440.76787979 757.98299176 -434.47746368 748.44094577 -429.22265625 738.3359375 C-428.79050812 737.50829391 -428.35835999 736.68065033 -427.91311646 735.82792664 C-423.67388969 727.57635433 -420.03112483 719.11210127 -416.49874878 710.53897095 C-414.48520651 705.65365797 -412.44063642 700.7812749 -410.40234375 695.90625 C-409.97085526 694.8718428 -409.53936676 693.83743561 -409.09480286 692.77168274 C-403.7956619 680.0816235 -398.36482212 667.44813041 -392.9375 654.8125 C-391.90709522 652.41229358 -390.87674029 650.01206576 -389.84643555 647.61181641 C-388.32888767 644.07654012 -386.81125593 640.54130014 -385.29316711 637.0062561 C-382.2336127 629.88026383 -379.18303528 622.75051462 -376.140625 615.6171875 C-367.77547601 596.01397162 -359.28866656 576.47030864 -350.62963867 556.99487305 C-343.12248879 540.1014603 -335.84074462 523.11828997 -328.7706604 506.03744507 C-322.93672386 491.9522323 -316.99542719 477.91617588 -310.97363281 463.91040039 C-310.34046404 462.43767598 -309.70732656 460.96493812 -309.07421875 459.4921875 C-308.75317169 458.7453923 -308.43212463 457.99859711 -308.10134888 457.22917175 C-303.75045599 447.10113953 -299.43903843 436.95627024 -295.125 426.8125 C-294.70025391 425.81389954 -294.27550781 424.81529907 -293.83789062 423.78643799 C-290.89105623 416.85799545 -287.94537245 409.92906413 -285 403 C-284.24137972 401.21549223 -283.4827536 399.43098695 -282.72412109 397.64648438 C-277.81480793 386.09819705 -272.90717425 374.54919634 -268 363 C-265.22931576 356.47910331 -262.45853048 349.95824957 -259.6875 343.4375 C-259.34143707 342.62314484 -258.99537415 341.80878967 -258.63882446 340.96975708 C-252.33745856 326.14197236 -246.02936756 311.31705315 -239.72006226 296.49264526 C-233.97622401 282.99671717 -228.23585878 269.49932127 -222.5 256 C-216.54964353 241.99633554 -210.59610309 227.99402814 -204.63916016 213.99316406 C-203.76816572 211.94599053 -202.89723274 209.89879086 -202.02636719 207.8515625 C-201.20148754 205.91248455 -200.37648863 203.97345733 -199.55136108 202.03448486 C-198.7705322 200.1993334 -197.99010425 198.36401128 -197.21011353 196.52850342 C-195.51636098 192.54574182 -193.81595153 188.56643116 -192.08740234 184.59863281 C-191.65937569 183.6129985 -191.65937569 183.6129985 -191.22270203 182.60745239 C-190.47980149 180.899932 -189.73264654 179.19426429 -188.98510742 177.48876953 C-187.87732047 175.1361701 -187.87732047 175.1361701 -188 173 C-187.34 173 -186.68 173 -186 173 C-185.83582581 173.5244722 -185.67165161 174.0489444 -185.50250244 174.58930969 C-183.49758448 180.8136702 -181.06836806 186.78914734 -178.484375 192.79296875 C-178.04072601 193.8318071 -177.59707703 194.87064545 -177.13998413 195.94096375 C-175.6799105 199.35787789 -174.21492346 202.77266266 -172.75 206.1875 C-171.71951217 208.59700671 -170.68940798 211.00667751 -169.65966797 213.41650391 C-167.78705795 217.79836991 -165.91333199 222.17975521 -164.03812981 226.56051254 C-159.20138666 237.86034042 -154.38546908 249.16902335 -149.5710144 260.47836304 C-148.12648197 263.87151892 -146.68158689 267.26452014 -145.23657227 270.6574707 C-142.92672318 276.08110743 -140.61719785 281.50488193 -138.30780029 286.92871094 C-137.0401668 289.90567072 -135.77230611 292.88253365 -134.50439453 295.859375 C-126.72845725 314.11747713 -118.96387335 332.37863859 -111.36523438 350.71142578 C-109.74238892 354.62053312 -108.11375273 358.52720567 -106.484375 362.43359375 C-106.17203918 363.18257431 -105.85970337 363.93155487 -105.53790283 364.70323181 C-104.24273656 367.80898556 -102.94751923 370.91471764 -101.65148926 374.02011108 C-98.30757885 382.03290331 -94.97190373 390.04854226 -91.6875 398.0859375 C-85.54820783 413.15734535 -85.54820783 413.15734535 -78.75 427.9375 C-73.55539165 438.57882387 -69.08313917 449.52645258 -64.52124023 460.44897461 C-63.82158233 462.12358969 -63.12179203 463.79814946 -62.421875 465.47265625 C-62.06771011 466.31998825 -61.71354523 467.16732025 -61.34864807 468.04032898 C-58.65103718 474.47979818 -55.90594891 480.8979407 -53.140625 487.30859375 C-52.53473793 488.71450523 -52.53473793 488.71450523 -51.91661072 490.14881897 C-50.33296177 493.82197573 -48.74881377 497.49488369 -47.15603638 501.16409302 C-40.22809268 517.12532437 -40.22809268 517.12532437 -37.63671875 524.68359375 C-33.87109694 535.54976372 -29.08070681 546.02182359 -24.5 556.5625 C-23.50169745 558.86841413 -22.5035704 561.17440426 -21.50561523 563.48046875 C-15.94200298 576.31931188 -10.30480455 589.12030678 -4.53857422 601.86938477 C-0.310623 611.2398634 3.7507999 620.67586983 7.78408813 630.13119507 C14.99428628 647.03324429 22.31098947 663.88861021 29.63647461 680.7409668 C30.61574872 682.99396653 31.59499718 685.24697743 32.57421875 687.5 C33.0481456 688.59033035 33.52207245 689.68066071 34.01036072 690.80403137 C36.71499255 697.03003634 39.40738354 703.26105826 42.08203125 709.5 C51.24725843 733.06981056 51.24725843 733.06981056 65 754 C65.55429687 754.62261719 66.10859375 755.24523437 66.6796875 755.88671875 C73.41760206 763.02890818 82.05477514 767.97411819 92.0234375 768.3984375 C93.80729141 768.40630744 95.59128045 768.39826591 97.375 768.375 C98.69757813 768.39240234 98.69757813 768.39240234 100.046875 768.41015625 C110.75978845 768.363032 118.12614231 765.81757846 125.86328125 758.34765625 C131.53375746 752.11738897 133.14679618 746.37385487 133.3125 738.0625 C133.34988281 736.85722656 133.38726563 735.65195312 133.42578125 734.41015625 C132.9066053 724.13194181 128.02473743 714.29392389 123.74649048 705.12023926 C122.17849134 701.75527588 120.6402686 698.37665691 119.09765625 695 C118.76740952 694.27878967 118.43716278 693.55757935 118.09690857 692.81451416 C114.07066596 684.00293424 110.19444087 675.12583572 106.3125 666.25 C104.7778028 662.74459055 103.24248175 659.23945454 101.70703125 655.734375 C101.12788971 654.41200836 101.12788971 654.41200836 100.53704834 653.06292725 C96.21457813 643.19835656 91.85742553 633.34916641 87.5 623.5 C81.31155481 609.50950131 75.14404858 595.51005183 69 581.5 C62.87423443 567.53276526 56.72892978 553.57433145 50.5625 539.625 C50.16918488 538.73524475 49.77586975 537.8454895 49.37063599 536.92877197 C46.5811356 530.61886656 43.79067836 524.3093845 41 518 C7.33764231 441.89350172 7.33764231 441.89350172 -4.7387085 413.57833862 C-10.69528573 399.62052211 -16.86901458 385.76864869 -23.12237549 371.94143677 C-29.43872134 357.96873441 -35.6870634 343.96751461 -41.875 329.9375 C-42.69906713 328.07044426 -43.52320626 326.20342029 -44.34741211 324.33642578 C-45.62421536 321.44415177 -46.90095513 318.55184988 -48.17741394 315.65942383 C-51.05681511 309.13496074 -53.93944497 302.61193296 -56.82421875 296.08984375 C-64.94692823 277.72362953 -73.04954054 259.34888138 -81.11502075 240.9574585 C-87.28316062 226.89351247 -93.48235605 212.84349734 -99.69473267 198.79904175 C-105.17020336 186.41954013 -110.62500814 174.03120287 -116.05993652 161.6338501 C-119.00327315 154.92172339 -121.95161857 148.21179593 -124.90057373 141.50213623 C-126.01520689 138.9653913 -127.12893852 136.42825166 -128.24267578 133.89111328 C-130.06226571 129.74780837 -131.88734445 125.60695833 -133.71621704 121.46774292 C-134.39268848 119.93473383 -135.06753833 118.40100791 -135.74057007 116.8664856 C-143.66553702 98.80445813 -151.03132212 82.60143966 -170.3125 74.625 C-188.98781398 67.52529386 -209.11109686 73.42911622 -222.6875 87.5625 Z M-211.75 369.75 C-223.65429415 384.14904373 -221.2898121 405.81675666 -221.25396729 423.32261658 C-221.25627435 425.78254128 -221.25945252 428.24246529 -221.26342177 430.70238787 C-221.27001117 436.03110905 -221.27044865 441.35977675 -221.26532745 446.68849564 C-221.25773261 454.61281126 -221.26164543 462.53709291 -221.26774407 470.46140833 C-221.27825439 484.61814547 -221.27737118 498.77486452 -221.27158624 512.93160337 C-221.26654846 525.32127697 -221.26524483 537.71094395 -221.26763153 550.10061836 C-221.2677843 550.92352795 -221.26793707 551.74643754 -221.26809447 552.59428379 C-221.26871718 555.93503482 -221.26935399 559.27578585 -221.270014 562.61653687 C-221.27612759 593.93500755 -221.27059217 625.25346672 -221.2598202 656.57193562 C-221.25033038 684.37405374 -221.25117802 712.17615353 -221.26074219 739.97827148 C-221.27146035 771.23918312 -221.27569307 802.50008461 -221.26951766 833.76099783 C-221.26887626 837.09585384 -221.26825058 840.43070986 -221.26763153 843.76556587 C-221.26747338 844.58664728 -221.26731522 845.4077287 -221.26715227 846.25369137 C-221.26488092 858.63247304 -221.2675312 871.01124735 -221.27259064 883.390028 C-221.27831734 897.47131698 -221.27686209 911.5525851 -221.26602915 925.63387149 C-221.26017155 933.50682717 -221.25975151 941.37973763 -221.2673215 949.25269211 C-221.27235711 955.14114879 -221.26686612 961.02956588 -221.25737235 966.91801805 C-221.25514631 969.2926697 -221.25625664 971.66732743 -221.26112393 974.04197513 C-221.8213337 999.56510984 -221.8213337 999.56510984 -213 1023 C-212.61972656 1023.61359375 -212.23945313 1024.2271875 -211.84765625 1024.859375 C-206.07416903 1032.83130753 -195.24737902 1036.95369943 -185.85930061 1038.52599907 C-181.86792796 1039.01622114 -177.96307785 1039.13944064 -173.95040894 1039.12698364 C-173.16859666 1039.12854363 -172.38678438 1039.13010362 -171.58128083 1039.13171089 C-168.97587996 1039.13568153 -166.37053796 1039.13254626 -163.76513672 1039.12939453 C-161.88999904 1039.13075056 -160.01486164 1039.13253163 -158.13972473 1039.13470459 C-153.04950479 1039.13926182 -147.95930513 1039.13749453 -142.86908484 1039.1343255 C-137.51348156 1039.13178488 -132.15787996 1039.13414494 -126.80227661 1039.13571167 C-117.78549897 1039.13753186 -108.76872952 1039.13513461 -99.75195312 1039.13037109 C-89.40103485 1039.12496507 -79.0501364 1039.12666486 -68.69921863 1039.1321975 C-59.76791081 1039.13677665 -50.83660887 1039.13735489 -41.90530026 1039.13475883 C-36.59200348 1039.1332175 -31.27871591 1039.13294147 -25.96541977 1039.13629532 C67.96676037 1039.18737403 166.18074321 1031.90596096 258 958 C258.85335938 957.27296875 259.70671875 956.5459375 260.5859375 955.796875 C264.73389507 952.20103465 268.47129935 948.49733488 272.0078125 944.30078125 C273.99269917 942.00843175 276.06378639 939.81444579 278.1550293 937.61938477 C300.78279199 913.70828871 318.29772719 883.65846748 330 853 C330.26474121 852.30664551 330.52948242 851.61329102 330.80224609 850.89892578 C332.65653621 845.97174504 334.35674065 841.00108733 336 836 C336.41548096 834.74872314 336.41548096 834.74872314 336.83935547 833.47216797 C351.28327685 789.52816844 356.24020812 743.26708153 356.1875 697.1875 C356.18689575 696.20344177 356.1862915 695.21938354 356.18566895 694.20550537 C356.11189639 649.71255749 350.97230721 605.65191576 338 563 C337.73493652 562.11038574 337.46987305 561.22077148 337.19677734 560.30419922 C322.29994909 510.77574767 292.53051488 462.575703 251.7109375 430.16015625 C249.98229941 428.78272561 248.27609773 427.37631222 246.6015625 425.93359375 C231.04461607 412.60958443 213.1580742 402.32126263 195 393 C194.2795752 392.62681641 193.55915039 392.25363281 192.81689453 391.86914062 C140.89171024 365.26387917 79.66100073 355.93363461 21.80712891 355.70483398 C19.7474896 355.69315579 17.68788404 355.67246457 15.62841797 355.64331055 C12.6218657 355.6009414 9.61618725 355.58452816 6.609375 355.57421875 C5.6875946 355.55671066 4.76581421 355.53920258 3.81610107 355.52116394 C-1.15274204 355.37893512 -1.15274204 355.37893512 -5.10058594 358.02661133 C-5.5457959 359.00343872 -5.5457959 359.00343872 -6 360 C-3.44088388 365.79439959 -0.88143512 371.58865217 1.67822266 377.3828125 C2.54515748 379.34534543 3.4120219 381.30790946 4.27880859 383.27050781 C4.90456787 384.68734863 4.90456787 384.68734863 5.54296875 386.1328125 C5.9594165 387.07586243 6.37586426 388.01891235 6.80493164 388.99053955 C7.64299579 390.88675934 8.48202523 392.7825528 9.32202148 394.67791748 C11.33433696 399.21940219 13.33497996 403.76505091 15.3046875 408.32519531 C15.66554443 409.15427399 16.02640137 409.98335266 16.39819336 410.83755493 C17.07139951 412.38502373 17.73923442 413.93484486 18.40063477 415.48739624 C19.89113049 418.89787209 21.1852256 421.55151932 24 424 C32.12764589 426.58130026 41.26033245 426.7185029 49.72781372 427.57312012 C80.33230126 430.71105719 110.75490053 436.3097263 139 449 C139.71494629 449.31517578 140.42989258 449.63035156 141.16650391 449.95507812 C163.00871566 459.63822899 182.27487268 472.11602734 199.56347656 488.63085938 C200.95598613 489.95805068 202.36448908 491.2683983 203.7734375 492.578125 C216.02939819 504.3073252 225.49228743 518.39615424 234 533 C234.3825293 533.65516602 234.76505859 534.31033203 235.15917969 534.98535156 C278.48092473 610.29058441 279.54028735 718.76407732 258 801 C253.7914384 816.47147409 248.74487435 831.44895984 242 846 C241.68595215 846.68707031 241.3719043 847.37414062 241.04833984 848.08203125 C234.45845534 862.36068312 226.11196184 875.9355252 216 888 C215.58169922 888.51095215 215.16339844 889.0219043 214.73242188 889.54833984 C174.87947761 938.17281182 113.69720287 959.99361077 52.75 966.75 C51.19285278 966.92354004 51.19285278 966.92354004 49.60424805 967.10058594 C-13.28486444 973.44980512 -76.79249344 969.59482368 -140 970 C-140 790.15 -140 610.3 -140 425 C-129.44 425 -118.88 425 -108 425 C-104.7002446 420.67221376 -104.7002446 420.67221376 -105.26202393 417.97679138 C-105.71095001 416.99139122 -105.71095001 416.99139122 -106.16894531 415.98608398 C-106.50049622 415.23016464 -106.83204712 414.4742453 -107.17364502 413.69541931 C-107.74511261 412.48300316 -107.74511261 412.48300316 -108.328125 411.24609375 C-108.71055359 410.39056412 -109.09298218 409.53503448 -109.48699951 408.65357971 C-110.72119317 405.90525917 -111.98484029 403.17168287 -113.25 400.4375 C-114.05667752 398.65519623 -114.86138522 396.87199952 -115.6640625 395.08789062 C-117.2730822 391.51800562 -118.90093502 387.95756676 -120.54101562 384.40185547 C-122.23019629 380.7248466 -123.85681549 377.02759281 -125.44335938 373.30517578 C-125.83900085 372.38897964 -126.23464233 371.47278351 -126.64227295 370.52882385 C-127.39276829 368.78605561 -128.13146255 367.03814117 -128.85626221 365.28453064 C-130.2860502 361.99265718 -131.49302421 359.49446229 -134.07714844 356.97412109 C-138.67335285 355.4423089 -143.15488174 355.55264735 -147.96875 355.56640625 C-149.04064575 355.5611644 -150.1125415 355.55592255 -151.21691895 355.55052185 C-153.48640072 355.54410326 -155.75591576 355.54543651 -158.02539062 355.55395508 C-161.46025744 355.56240226 -164.89342505 355.53380162 -168.328125 355.50195312 C-185.78526091 355.44548122 -199.17946829 356.59602589 -211.75 369.75 Z " fill="#000000" transform="translate(697,41)"/>
<path d="M0 0 C0.33 0 0.66 0 1 0 C1 134.64 1 269.28 1 408 C0.67 408 0.34 408 0 408 C0 273.36 0 138.72 0 0 Z " fill="#000000" transform="translate(477,628)"/>
<path d="M0 0 C0.33 0 0.66 0 1 0 C1 40.26 1 80.52 1 122 C0.67 122 0.34 122 0 122 C0 81.74 0 41.48 0 0 Z " fill="#000000" transform="translate(477,440)"/>
<path d="M0 0 C1.98 0 3.96 0 6 0 C6 0.33 6 0.66 6 1 C4.02 1 2.04 1 0 1 C0 0.67 0 0.34 0 0 Z " fill="#000000" transform="translate(746,1009)"/>
<path d="M0 0 C0.33 0 0.66 0 1 0 C1 1.65 1 3.3 1 5 C0.67 5 0.34 5 0 5 C0 3.35 0 1.7 0 0 Z " fill="#000000" transform="translate(192,768)"/>
<path d="M0 0 C4 1 4 1 4 1 Z " fill="#000000" transform="translate(738,1010)"/>
<path d="M0 0 C3 1 3 1 3 1 Z " fill="#000000" transform="translate(713,1011)"/>
<path d="" fill="#000000" transform="translate(0,0)"/>
<path d="M0 0 C2 1 2 1 2 1 Z " fill="#000000" transform="translate(812,996)"/>
<path d="" fill="#000000" transform="translate(0,0)"/>
<path d="" fill="#000000" transform="translate(0,0)"/>
<path d="" fill="#000000" transform="translate(0,0)"/>
<path d="" fill="#000000" transform="translate(0,0)"/>
<path d="" fill="#000000" transform="translate(0,0)"/>
<path d="" fill="#000000" transform="translate(0,0)"/>
<path d="" fill="#000000" transform="translate(0,0)"/>
<path d="" fill="#000000" transform="translate(0,0)"/>
<path d="" fill="#000000" transform="translate(0,0)"/>
<path d="" fill="#000000" transform="translate(0,0)"/>
<path d="" fill="#000000" transform="translate(0,0)"/>
<path d="" fill="#000000" transform="translate(0,0)"/>
<path d="" fill="#000000" transform="translate(0,0)"/>
<path d="" fill="#000000" transform="translate(0,0)"/>
<path d="" fill="#000000" transform="translate(0,0)"/>
<path d="" fill="#000000" transform="translate(0,0)"/>
<path d="" fill="#000000" transform="translate(0,0)"/>
<path d="" fill="#000000" transform="translate(0,0)"/>
<path d="" fill="#000000" transform="translate(0,0)"/>
<path d="" fill="#000000" transform="translate(0,0)"/>
<path d="" fill="#000000" transform="translate(0,0)"/>
<path d="" fill="#000000" transform="translate(0,0)"/>
<path d="" fill="#000000" transform="translate(0,0)"/>
<path d="" fill="#000000" transform="translate(0,0)"/>
<path d="" fill="#000000" transform="translate(0,0)"/>
<path d="" fill="#000000" transform="translate(0,0)"/>
<path d="" fill="#000000" transform="translate(0,0)"/>
<path d="" fill="#000000" transform="translate(0,0)"/>
<path d="" fill="#000000" transform="translate(0,0)"/>
<path d="" fill="#000000" transform="translate(0,0)"/>
<path d="" fill="#000000" transform="translate(0,0)"/>
<path d="" fill="#000000" transform="translate(0,0)"/>
<path d="" fill="#000000" transform="translate(0,0)"/>
<path d="" fill="#000000" transform="translate(0,0)"/>
<path d="" fill="#000000" transform="translate(0,0)"/>
<path d="M0 0 C2 1 2 1 2 1 Z " fill="#000000" transform="translate(880,430)"/>
<path d="M0 0 C2 1 2 1 2 1 Z " fill="#000000" transform="translate(863,423)"/>
<path d="" fill="#000000" transform="translate(0,0)"/>
<path d="" fill="#000000" transform="translate(0,0)"/>
<path d="" fill="#000000" transform="translate(0,0)"/>
<path d="" fill="#000000" transform="translate(0,0)"/>
<path d="" fill="#000000" transform="translate(0,0)"/>
<path d="M0 0 C2 1 2 1 2 1 Z " fill="#000000" transform="translate(514,398)"/>
<path d="" fill="#000000" transform="translate(0,0)"/>
<path d="" fill="#000000" transform="translate(0,0)"/>
<path d="" fill="#000000" transform="translate(0,0)"/>
<path d="" fill="#000000" transform="translate(0,0)"/>
<path d="" fill="#000000" transform="translate(0,0)"/>
<path d="" fill="#000000" transform="translate(0,0)"/>
<path d="" fill="#000000" transform="translate(0,0)"/>
<path d="" fill="#000000" transform="translate(0,0)"/>
<path d="" fill="#000000" transform="translate(0,0)"/>
<path d="" fill="#000000" transform="translate(0,0)"/>
<path d="" fill="#000000" transform="translate(0,0)"/>
<path d="" fill="#000000" transform="translate(0,0)"/>
<path d="" fill="#000000" transform="translate(0,0)"/>
<path d="" fill="#000000" transform="translate(0,0)"/>
<path d="" fill="#000000" transform="translate(0,0)"/>
<path d="" fill="#000000" transform="translate(0,0)"/>
<path d="" fill="#000000" transform="translate(0,0)"/>
<path d="" fill="#000000" transform="translate(0,0)"/>
<path d="" fill="#000000" transform="translate(0,0)"/>
<path d="" fill="#000000" transform="translate(0,0)"/>
<path d="" fill="#000000" transform="translate(0,0)"/>
<path d="" fill="#000000" transform="translate(0,0)"/>
<path d="" fill="#000000" transform="translate(0,0)"/>
<path d="" fill="#000000" transform="translate(0,0)"/>
<path d="" fill="#000000" transform="translate(0,0)"/>
<path d="" fill="#000000" transform="translate(0,0)"/>
<path d="" fill="#000000" transform="translate(0,0)"/>
<path d="" fill="#000000" transform="translate(0,0)"/>
<path d="" fill="#000000" transform="translate(0,0)"/>
<path d="" fill="#000000" transform="translate(0,0)"/>
<path d="" fill="#000000" transform="translate(0,0)"/>
<path d="" fill="#000000" transform="translate(0,0)"/>
<path d="" fill="#000000" transform="translate(0,0)"/>
<path d="" fill="#000000" transform="translate(0,0)"/>
<path d="" fill="#000000" transform="translate(0,0)"/>
<path d="" fill="#000000" transform="translate(0,0)"/>
<path d="" fill="#000000" transform="translate(0,0)"/>
<path d="" fill="#000000" transform="translate(0,0)"/>
<path d="" fill="#000000" transform="translate(0,0)"/>
<path d="" fill="#000000" transform="translate(0,0)"/>
<path d="" fill="#000000" transform="translate(0,0)"/>
<path d="" fill="#000000" transform="translate(0,0)"/>
<path d="" fill="#000000" transform="translate(0,0)"/>
<path d="" fill="#000000" transform="translate(0,0)"/>
<path d="" fill="#000000" transform="translate(0,0)"/>
<path d="" fill="#000000" transform="translate(0,0)"/>
<path d="" fill="#000000" transform="translate(0,0)"/>
<path d="" fill="#000000" transform="translate(0,0)"/>
<path d="" fill="#000000" transform="translate(0,0)"/>
<path d="" fill="#000000" transform="translate(0,0)"/>
<path d="" fill="#000000" transform="translate(0,0)"/>
<path d="" fill="#000000" transform="translate(0,0)"/>
<path d="" fill="#000000" transform="translate(0,0)"/>
<path d="" fill="#000000" transform="translate(0,0)"/>
<path d="" fill="#000000" transform="translate(0,0)"/>
<path d="" fill="#000000" transform="translate(0,0)"/>
<path d="" fill="#000000" transform="translate(0,0)"/>
<path d="" fill="#000000" transform="translate(0,0)"/>
<path d="" fill="#000000" transform="translate(0,0)"/>
<path d="" fill="#000000" transform="translate(0,0)"/>
<path d="" fill="#000000" transform="translate(0,0)"/>
<path d="" fill="#000000" transform="translate(0,0)"/>
<path d="" fill="#000000" transform="translate(0,0)"/>
<path d="" fill="#000000" transform="translate(0,0)"/>
<path d="" fill="#000000" transform="translate(0,0)"/>
<path d="" fill="#000000" transform="translate(0,0)"/>
<path d="" fill="#000000" transform="translate(0,0)"/>
<path d="" fill="#000000" transform="translate(0,0)"/>
<path d="" fill="#000000" transform="translate(0,0)"/>
<path d="" fill="#000000" transform="translate(0,0)"/>
<path d="" fill="#000000" transform="translate(0,0)"/>
<path d="" fill="#000000" transform="translate(0,0)"/>
<path d="" fill="#000000" transform="translate(0,0)"/>
<path d="" fill="#000000" transform="translate(0,0)"/>
<path d="" fill="#000000" transform="translate(0,0)"/>
<path d="" fill="#000000" transform="translate(0,0)"/>
<path d="" fill="#000000" transform="translate(0,0)"/>
<path d="" fill="#000000" transform="translate(0,0)"/>
<path d="" fill="#000000" transform="translate(0,0)"/>
<path d="" fill="#000000" transform="translate(0,0)"/>
<path d="" fill="#000000" transform="translate(0,0)"/>
<path d="" fill="#000000" transform="translate(0,0)"/>
<path d="" fill="#000000" transform="translate(0,0)"/>
<path d="" fill="#000000" transform="translate(0,0)"/>
<path d="" fill="#000000" transform="translate(0,0)"/>
<path d="" fill="#000000" transform="translate(0,0)"/>
<path d="" fill="#000000" transform="translate(0,0)"/>
<path d="" fill="#000000" transform="translate(0,0)"/>
<path d="" fill="#000000" transform="translate(0,0)"/>
<path d="" fill="#000000" transform="translate(0,0)"/>
<path d="" fill="#000000" transform="translate(0,0)"/>
<path d="" fill="#000000" transform="translate(0,0)"/>
<path d="" fill="#000000" transform="translate(0,0)"/>
<path d="" fill="#000000" transform="translate(0,0)"/>
<path d="" fill="#000000" transform="translate(0,0)"/>
<path d="" fill="#000000" transform="translate(0,0)"/>
<path d="" fill="#000000" transform="translate(0,0)"/>
<path d="" fill="#000000" transform="translate(0,0)"/>
<path d="" fill="#000000" transform="translate(0,0)"/>
<path d="" fill="#000000" transform="translate(0,0)"/>
<path d="" fill="#000000" transform="translate(0,0)"/>
<path d="" fill="#000000" transform="translate(0,0)"/>
<path d="" fill="#000000" transform="translate(0,0)"/>
<path d="" fill="#000000" transform="translate(0,0)"/>
<path d="" fill="#000000" transform="translate(0,0)"/>
<path d="" fill="#000000" transform="translate(0,0)"/>
<path d="" fill="#000000" transform="translate(0,0)"/>
<path d="" fill="#000000" transform="translate(0,0)"/>
<path d="" fill="#000000" transform="translate(0,0)"/>
<path d="" fill="#000000" transform="translate(0,0)"/>
<path d="" fill="#000000" transform="translate(0,0)"/>
<path d="" fill="#000000" transform="translate(0,0)"/>
<path d="" fill="#000000" transform="translate(0,0)"/>
<path d="" fill="#000000" transform="translate(0,0)"/>
<path d="" fill="#000000" transform="translate(0,0)"/>
<path d="" fill="#000000" transform="translate(0,0)"/>
<path d="" fill="#000000" transform="translate(0,0)"/>
<path d="" fill="#000000" transform="translate(0,0)"/>
<path d="" fill="#000000" transform="translate(0,0)"/>
<path d="" fill="#000000" transform="translate(0,0)"/>
<path d="" fill="#000000" transform="translate(0,0)"/>
<path d="" fill="#000000" transform="translate(0,0)"/>
<path d="" fill="#000000" transform="translate(0,0)"/>
<path d="" fill="#000000" transform="translate(0,0)"/>
<path d="" fill="#000000" transform="translate(0,0)"/>
<path d="" fill="#000000" transform="translate(0,0)"/>
<path d="" fill="#000000" transform="translate(0,0)"/>
<path d="" fill="#000000" transform="translate(0,0)"/>
<path d="" fill="#000000" transform="translate(0,0)"/>
<path d="" fill="#000000" transform="translate(0,0)"/>
<path d="" fill="#000000" transform="translate(0,0)"/>
<path d="" fill="#000000" transform="translate(0,0)"/>
<path d="" fill="#000000" transform="translate(0,0)"/>
<path d="" fill="#000000" transform="translate(0,0)"/>
<path d="" fill="#000000" transform="translate(0,0)"/>
<path d="" fill="#000000" transform="translate(0,0)"/>
<path d="" fill="#000000" transform="translate(0,0)"/>
<path d="" fill="#000000" transform="translate(0,0)"/>
<path d="" fill="#000000" transform="translate(0,0)"/>
<path d="" fill="#000000" transform="translate(0,0)"/>
<path d="" fill="#000000" transform="translate(0,0)"/>
<path d="" fill="#000000" transform="translate(0,0)"/>
<path d="" fill="#000000" transform="translate(0,0)"/>
<path d="" fill="#000000" transform="translate(0,0)"/>
<path d="" fill="#000000" transform="translate(0,0)"/>
<path d="" fill="#000000" transform="translate(0,0)"/>
<path d="" fill="#000000" transform="translate(0,0)"/>
<path d="" fill="#000000" transform="translate(0,0)"/>
<path d="" fill="#000000" transform="translate(0,0)"/>
<path d="" fill="#000000" transform="translate(0,0)"/>
<path d="" fill="#000000" transform="translate(0,0)"/>
<path d="" fill="#000000" transform="translate(0,0)"/>
<path d="" fill="#000000" transform="translate(0,0)"/>
<path d="" fill="#000000" transform="translate(0,0)"/>
<path d="" fill="#000000" transform="translate(0,0)"/>
<path d="" fill="#000000" transform="translate(0,0)"/>
<path d="" fill="#000000" transform="translate(0,0)"/>
<path d="" fill="#000000" transform="translate(0,0)"/>
<path d="" fill="#000000" transform="translate(0,0)"/>
<path d="" fill="#000000" transform="translate(0,0)"/>
<path d="" fill="#000000" transform="translate(0,0)"/>
<path d="" fill="#000000" transform="translate(0,0)"/>
<path d="" fill="#000000" transform="translate(0,0)"/>
<path d="" fill="#000000" transform="translate(0,0)"/>
<path d="" fill="#000000" transform="translate(0,0)"/>
<path d="" fill="#000000" transform="translate(0,0)"/>
<path d="" fill="#000000" transform="translate(0,0)"/>
<path d="" fill="#000000" transform="translate(0,0)"/>
<path d="" fill="#000000" transform="translate(0,0)"/>
<path d="" fill="#000000" transform="translate(0,0)"/>
<path d="" fill="#000000" transform="translate(0,0)"/>
<path d="" fill="#000000" transform="translate(0,0)"/>
<path d="" fill="#000000" transform="translate(0,0)"/>
<path d="" fill="#000000" transform="translate(0,0)"/>
<path d="" fill="#000000" transform="translate(0,0)"/>
<path d="" fill="#000000" transform="translate(0,0)"/>
<path d="" fill="#000000" transform="translate(0,0)"/>
<path d="" fill="#000000" transform="translate(0,0)"/>
<path d="" fill="#000000" transform="translate(0,0)"/>
<path d="" fill="#000000" transform="translate(0,0)"/>
<path d="" fill="#000000" transform="translate(0,0)"/>
<path d="" fill="#000000" transform="translate(0,0)"/>
<path d="" fill="#000000" transform="translate(0,0)"/>
<path d="" fill="#000000" transform="translate(0,0)"/>
<path d="" fill="#000000" transform="translate(0,0)"/>
<path d="" fill="#000000" transform="translate(0,0)"/>
<path d="" fill="#000000" transform="translate(0,0)"/>
<path d="" fill="#000000" transform="translate(0,0)"/>
<path d="" fill="#000000" transform="translate(0,0)"/>
<path d="" fill="#000000" transform="translate(0,0)"/>
<path d="" fill="#000000" transform="translate(0,0)"/>
<path d="" fill="#000000" transform="translate(0,0)"/>
<path d="" fill="#000000" transform="translate(0,0)"/>
<path d="" fill="#000000" transform="translate(0,0)"/>
<path d="" fill="#000000" transform="translate(0,0)"/>
<path d="" fill="#000000" transform="translate(0,0)"/>
<path d="" fill="#000000" transform="translate(0,0)"/>
<path d="" fill="#000000" transform="translate(0,0)"/>
<path d="" fill="#000000" transform="translate(0,0)"/>
<path d="" fill="#000000" transform="translate(0,0)"/>
<path d="" fill="#000000" transform="translate(0,0)"/>
<path d="" fill="#000000" transform="translate(0,0)"/>
<path d="" fill="#000000" transform="translate(0,0)"/>
<path d="" fill="#000000" transform="translate(0,0)"/>
<path d="" fill="#000000" transform="translate(0,0)"/>
<path d="" fill="#000000" transform="translate(0,0)"/>
<path d="" fill="#000000" transform="translate(0,0)"/>
<path d="" fill="#000000" transform="translate(0,0)"/>
<path d="" fill="#000000" transform="translate(0,0)"/>
<path d="" fill="#000000" transform="translate(0,0)"/>
<path d="" fill="#000000" transform="translate(0,0)"/>
<path d="" fill="#000000" transform="translate(0,0)"/>
<path d="" fill="#000000" transform="translate(0,0)"/>
<path d="" fill="#000000" transform="translate(0,0)"/>
<path d="" fill="#000000" transform="translate(0,0)"/>
<path d="" fill="#000000" transform="translate(0,0)"/>
<path d="" fill="#000000" transform="translate(0,0)"/>
<path d="" fill="#000000" transform="translate(0,0)"/>
<path d="" fill="#000000" transform="translate(0,0)"/>
<path d="" fill="#000000" transform="translate(0,0)"/>
<path d="" fill="#000000" transform="translate(0,0)"/>
<path d="" fill="#000000" transform="translate(0,0)"/>
<path d="" fill="#000000" transform="translate(0,0)"/>
<path d="" fill="#000000" transform="translate(0,0)"/>
<path d="" fill="#000000" transform="translate(0,0)"/>
<path d="" fill="#000000" transform="translate(0,0)"/>
<path d="" fill="#000000" transform="translate(0,0)"/>
<path d="" fill="#000000" transform="translate(0,0)"/>
<path d="" fill="#000000" transform="translate(0,0)"/>
<path d="" fill="#000000" transform="translate(0,0)"/>
<path d="" fill="#000000" transform="translate(0,0)"/>
<path d="" fill="#000000" transform="translate(0,0)"/>
<path d="" fill="#000000" transform="translate(0,0)"/>
<path d="" fill="#000000" transform="translate(0,0)"/>
<path d="" fill="#000000" transform="translate(0,0)"/>
<path d="" fill="#000000" transform="translate(0,0)"/>
<path d="" fill="#000000" transform="translate(0,0)"/>
<path d="" fill="#000000" transform="translate(0,0)"/>
<path d="" fill="#000000" transform="translate(0,0)"/>
<path d="" fill="#000000" transform="translate(0,0)"/>
<path d="" fill="#000000" transform="translate(0,0)"/>
<path d="" fill="#000000" transform="translate(0,0)"/>
<path d="" fill="#000000" transform="translate(0,0)"/>
<path d="" fill="#000000" transform="translate(0,0)"/>
<path d="" fill="#000000" transform="translate(0,0)"/>
<path d="" fill="#000000" transform="translate(0,0)"/>
<path d="" fill="#000000" transform="translate(0,0)"/>
<path d="" fill="#000000" transform="translate(0,0)"/>
<path d="" fill="#000000" transform="translate(0,0)"/>
<path d="" fill="#000000" transform="translate(0,0)"/>
<path d="" fill="#000000" transform="translate(0,0)"/>
<path d="" fill="#000000" transform="translate(0,0)"/>
<path d="" fill="#000000" transform="translate(0,0)"/>
<path d="" fill="#000000" transform="translate(0,0)"/>
<path d="" fill="#000000" transform="translate(0,0)"/>
<path d="" fill="#000000" transform="translate(0,0)"/>
<path d="" fill="#000000" transform="translate(0,0)"/>
<path d="" fill="#000000" transform="translate(0,0)"/>
<path d="" fill="#000000" transform="translate(0,0)"/>
<path d="" fill="#000000" transform="translate(0,0)"/>
<path d="" fill="#000000" transform="translate(0,0)"/>
<path d="" fill="#000000" transform="translate(0,0)"/>
<path d="" fill="#000000" transform="translate(0,0)"/>
<path d="" fill="#000000" transform="translate(0,0)"/>
<path d="" fill="#000000" transform="translate(0,0)"/>
<path d="" fill="#000000" transform="translate(0,0)"/>
<path d="" fill="#000000" transform="translate(0,0)"/>
<path d="" fill="#000000" transform="translate(0,0)"/>
<path d="" fill="#000000" transform="translate(0,0)"/>
<path d="" fill="#000000" transform="translate(0,0)"/>
<path d="" fill="#000000" transform="translate(0,0)"/>
<path d="" fill="#000000" transform="translate(0,0)"/>
<path d="" fill="#000000" transform="translate(0,0)"/>
<path d="" fill="#000000" transform="translate(0,0)"/>
<path d="" fill="#000000" transform="translate(0,0)"/>
<path d="" fill="#000000" transform="translate(0,0)"/>
<path d="" fill="#000000" transform="translate(0,0)"/>
<path d="" fill="#000000" transform="translate(0,0)"/>
<path d="" fill="#000000" transform="translate(0,0)"/>
<path d="" fill="#000000" transform="translate(0,0)"/>
<path d="" fill="#000000" transform="translate(0,0)"/>
<path d="" fill="#000000" transform="translate(0,0)"/>
<path d="" fill="#000000" transform="translate(0,0)"/>
<path d="" fill="#000000" transform="translate(0,0)"/>
<path d="" fill="#000000" transform="translate(0,0)"/>
<path d="" fill="#000000" transform="translate(0,0)"/>
<path d="" fill="#000000" transform="translate(0,0)"/>
<path d="" fill="#000000" transform="translate(0,0)"/>
<path d="" fill="#000000" transform="translate(0,0)"/>
<path d="" fill="#000000" transform="translate(0,0)"/>
<path d="" fill="#000000" transform="translate(0,0)"/>
<path d="" fill="#000000" transform="translate(0,0)"/>
<path d="" fill="#000000" transform="translate(0,0)"/>
<path d="" fill="#000000" transform="translate(0,0)"/>
<path d="" fill="#000000" transform="translate(0,0)"/>
<path d="" fill="#000000" transform="translate(0,0)"/>
<path d="" fill="#000000" transform="translate(0,0)"/>
<path d="" fill="#000000" transform="translate(0,0)"/>
<path d="" fill="#000000" transform="translate(0,0)"/>
<path d="" fill="#000000" transform="translate(0,0)"/>
<path d="" fill="#000000" transform="translate(0,0)"/>
<path d="" fill="#000000" transform="translate(0,0)"/>
<path d="" fill="#000000" transform="translate(0,0)"/>
<path d="" fill="#000000" transform="translate(0,0)"/>
<path d="" fill="#000000" transform="translate(0,0)"/>
<path d="" fill="#000000" transform="translate(0,0)"/>
<path d="" fill="#000000" transform="translate(0,0)"/>
<path d="" fill="#000000" transform="translate(0,0)"/>
<path d="" fill="#000000" transform="translate(0,0)"/>
<path d="" fill="#000000" transform="translate(0,0)"/>
<path d="" fill="#000000" transform="translate(0,0)"/>
<path d="" fill="#000000" transform="translate(0,0)"/>
<path d="" fill="#000000" transform="translate(0,0)"/>
<path d="" fill="#000000" transform="translate(0,0)"/>
<path d="" fill="#000000" transform="translate(0,0)"/>
<path d="" fill="#000000" transform="translate(0,0)"/>
<path d="" fill="#000000" transform="translate(0,0)"/>
<path d="" fill="#000000" transform="translate(0,0)"/>
<path d="" fill="#000000" transform="translate(0,0)"/>
<path d="" fill="#000000" transform="translate(0,0)"/>
<path d="" fill="#000000" transform="translate(0,0)"/>
<path d="" fill="#000000" transform="translate(0,0)"/>
<path d="" fill="#000000" transform="translate(0,0)"/>
<path d="" fill="#000000" transform="translate(0,0)"/>
<path d="" fill="#000000" transform="translate(0,0)"/>
<path d="" fill="#000000" transform="translate(0,0)"/>
<path d="" fill="#000000" transform="translate(0,0)"/>
<path d="" fill="#000000" transform="translate(0,0)"/>
<path d="" fill="#000000" transform="translate(0,0)"/>
<path d="" fill="#000000" transform="translate(0,0)"/>
<path d="" fill="#000000" transform="translate(0,0)"/>
<path d="" fill="#000000" transform="translate(0,0)"/>
<path d="" fill="#000000" transform="translate(0,0)"/>
<path d="" fill="#000000" transform="translate(0,0)"/>
<path d="" fill="#000000" transform="translate(0,0)"/>
<path d="" fill="#000000" transform="translate(0,0)"/>
<path d="" fill="#000000" transform="translate(0,0)"/>
<path d="" fill="#000000" transform="translate(0,0)"/>
<path d="" fill="#000000" transform="translate(0,0)"/>
<path d="" fill="#000000" transform="translate(0,0)"/>
<path d="" fill="#000000" transform="translate(0,0)"/>
<path d="" fill="#000000" transform="translate(0,0)"/>
<path d="" fill="#000000" transform="translate(0,0)"/>
<path d="" fill="#000000" transform="translate(0,0)"/>
<path d="" fill="#000000" transform="translate(0,0)"/>
<path d="" fill="#000000" transform="translate(0,0)"/>
<path d="" fill="#000000" transform="translate(0,0)"/>
<path d="" fill="#000000" transform="translate(0,0)"/>
<path d="" fill="#000000" transform="translate(0,0)"/>
<path d="" fill="#000000" transform="translate(0,0)"/>
<path d="" fill="#000000" transform="translate(0,0)"/>
<path d="" fill="#000000" transform="translate(0,0)"/>
<path d="" fill="#000000" transform="translate(0,0)"/>
<path d="" fill="#000000" transform="translate(0,0)"/>
<path d="" fill="#000000" transform="translate(0,0)"/>
<path d="" fill="#000000" transform="translate(0,0)"/>
<path d="" fill="#000000" transform="translate(0,0)"/>
<path d="" fill="#000000" transform="translate(0,0)"/>
<path d="" fill="#000000" transform="translate(0,0)"/>
<path d="" fill="#000000" transform="translate(0,0)"/>
<path d="" fill="#000000" transform="translate(0,0)"/>
<path d="" fill="#000000" transform="translate(0,0)"/>
<path d="" fill="#000000" transform="translate(0,0)"/>
<path d="" fill="#000000" transform="translate(0,0)"/>
<path d="" fill="#000000" transform="translate(0,0)"/>
<path d="" fill="#000000" transform="translate(0,0)"/>
<path d="" fill="#000000" transform="translate(0,0)"/>
<path d="" fill="#000000" transform="translate(0,0)"/>
<path d="" fill="#000000" transform="translate(0,0)"/>
<path d="" fill="#000000" transform="translate(0,0)"/>
<path d="" fill="#000000" transform="translate(0,0)"/>
<path d="" fill="#000000" transform="translate(0,0)"/>
<path d="" fill="#000000" transform="translate(0,0)"/>
<path d="" fill="#000000" transform="translate(0,0)"/>
<path d="" fill="#000000" transform="translate(0,0)"/>
<path d="" fill="#000000" transform="translate(0,0)"/>
<path d="" fill="#000000" transform="translate(0,0)"/>
<path d="" fill="#000000" transform="translate(0,0)"/>
<path d="" fill="#000000" transform="translate(0,0)"/>
<path d="" fill="#000000" transform="translate(0,0)"/>
<path d="" fill="#000000" transform="translate(0,0)"/>
<path d="" fill="#000000" transform="translate(0,0)"/>
<path d="" fill="#000000" transform="translate(0,0)"/>
<path d="" fill="#000000" transform="translate(0,0)"/>
<path d="" fill="#000000" transform="translate(0,0)"/>
<path d="" fill="#000000" transform="translate(0,0)"/>
<path d="" fill="#000000" transform="translate(0,0)"/>
<path d="" fill="#000000" transform="translate(0,0)"/>
<path d="" fill="#000000" transform="translate(0,0)"/>
<path d="" fill="#000000" transform="translate(0,0)"/>
<path d="" fill="#000000" transform="translate(0,0)"/>
<path d="" fill="#000000" transform="translate(0,0)"/>
<path d="" fill="#000000" transform="translate(0,0)"/>
<path d="" fill="#000000" transform="translate(0,0)"/>
<path d="" fill="#000000" transform="translate(0,0)"/>
<path d="" fill="#000000" transform="translate(0,0)"/>
<path d="" fill="#000000" transform="translate(0,0)"/>
<path d="" fill="#000000" transform="translate(0,0)"/>
<path d="" fill="#000000" transform="translate(0,0)"/>
<path d="" fill="#000000" transform="translate(0,0)"/>
<path d="" fill="#000000" transform="translate(0,0)"/>
<path d="" fill="#000000" transform="translate(0,0)"/>
<path d="" fill="#000000" transform="translate(0,0)"/>
<path d="" fill="#000000" transform="translate(0,0)"/>
<path d="" fill="#000000" transform="translate(0,0)"/>
<path d="" fill="#000000" transform="translate(0,0)"/>
<path d="" fill="#000000" transform="translate(0,0)"/>
<path d="" fill="#000000" transform="translate(0,0)"/>
<path d="" fill="#000000" transform="translate(0,0)"/>
<path d="" fill="#000000" transform="translate(0,0)"/>
<path d="" fill="#000000" transform="translate(0,0)"/>
<path d="" fill="#000000" transform="translate(0,0)"/>
<path d="" fill="#000000" transform="translate(0,0)"/>
<path d="" fill="#000000" transform="translate(0,0)"/>
<path d="" fill="#000000" transform="translate(0,0)"/>
<path d="" fill="#000000" transform="translate(0,0)"/>
<path d="" fill="#000000" transform="translate(0,0)"/>
<path d="" fill="#000000" transform="translate(0,0)"/>
<path d="" fill="#000000" transform="translate(0,0)"/>
<path d="" fill="#000000" transform="translate(0,0)"/>
<path d="" fill="#000000" transform="translate(0,0)"/>
<path d="" fill="#000000" transform="translate(0,0)"/>
<path d="" fill="#000000" transform="translate(0,0)"/>
<path d="" fill="#000000" transform="translate(0,0)"/>
<path d="" fill="#000000" transform="translate(0,0)"/>
<path d="" fill="#000000" transform="translate(0,0)"/>
<path d="" fill="#000000" transform="translate(0,0)"/>
<path d="" fill="#000000" transform="translate(0,0)"/>
<path d="" fill="#000000" transform="translate(0,0)"/>
<path d="" fill="#000000" transform="translate(0,0)"/>
<path d="" fill="#000000" transform="translate(0,0)"/>
<path d="" fill="#000000" transform="translate(0,0)"/>
<path d="" fill="#000000" transform="translate(0,0)"/>
<path d="" fill="#000000" transform="translate(0,0)"/>
<path d="" fill="#000000" transform="translate(0,0)"/>
<path d="" fill="#000000" transform="translate(0,0)"/>
<path d="" fill="#000000" transform="translate(0,0)"/>
<path d="" fill="#000000" transform="translate(0,0)"/>
<path d="" fill="#000000" transform="translate(0,0)"/>
<path d="" fill="#000000" transform="translate(0,0)"/>
<path d="" fill="#000000" transform="translate(0,0)"/>
<path d="" fill="#000000" transform="translate(0,0)"/>
<path d="" fill="#000000" transform="translate(0,0)"/>
<path d="" fill="#000000" transform="translate(0,0)"/>
<path d="" fill="#000000" transform="translate(0,0)"/>
<path d="" fill="#000000" transform="translate(0,0)"/>
<path d="" fill="#000000" transform="translate(0,0)"/>
<path d="" fill="#000000" transform="translate(0,0)"/>
<path d="" fill="#000000" transform="translate(0,0)"/>
<path d="" fill="#000000" transform="translate(0,0)"/>
<path d="" fill="#000000" transform="translate(0,0)"/>
<path d="" fill="#000000" transform="translate(0,0)"/>
<path d="" fill="#000000" transform="translate(0,0)"/>
<path d="" fill="#000000" transform="translate(0,0)"/>
<path d="" fill="#000000" transform="translate(0,0)"/>
<path d="" fill="#000000" transform="translate(0,0)"/>
<path d="" fill="#000000" transform="translate(0,0)"/>
<path d="" fill="#000000" transform="translate(0,0)"/>
<path d="" fill="#000000" transform="translate(0,0)"/>
<path d="" fill="#000000" transform="translate(0,0)"/>
<path d="" fill="#000000" transform="translate(0,0)"/>
<path d="" fill="#000000" transform="translate(0,0)"/>
<path d="" fill="#000000" transform="translate(0,0)"/>
<path d="" fill="#000000" transform="translate(0,0)"/>
<path d="" fill="#000000" transform="translate(0,0)"/>
<path d="" fill="#000000" transform="translate(0,0)"/>
<path d="" fill="#000000" transform="translate(0,0)"/>
<path d="" fill="#000000" transform="translate(0,0)"/>
<path d="" fill="#000000" transform="translate(0,0)"/>
<path d="" fill="#000000" transform="translate(0,0)"/>
<path d="" fill="#000000" transform="translate(0,0)"/>
<path d="" fill="#000000" transform="translate(0,0)"/>
<path d="" fill="#000000" transform="translate(0,0)"/>
<path d="" fill="#000000" transform="translate(0,0)"/>
<path d="" fill="#000000" transform="translate(0,0)"/>
<path d="" fill="#000000" transform="translate(0,0)"/>
<path d="" fill="#000000" transform="translate(0,0)"/>
<path d="" fill="#000000" transform="translate(0,0)"/>
<path d="" fill="#000000" transform="translate(0,0)"/>
<path d="" fill="#000000" transform="translate(0,0)"/>
<path d="" fill="#000000" transform="translate(0,0)"/>
<path d="" fill="#000000" transform="translate(0,0)"/>
<path d="" fill="#000000" transform="translate(0,0)"/>
<path d="" fill="#000000" transform="translate(0,0)"/>
<path d="" fill="#000000" transform="translate(0,0)"/>
<path d="" fill="#000000" transform="translate(0,0)"/>
<path d="" fill="#000000" transform="translate(0,0)"/>
<path d="" fill="#000000" transform="translate(0,0)"/>
<path d="" fill="#000000" transform="translate(0,0)"/>
<path d="" fill="#000000" transform="translate(0,0)"/>
<path d="" fill="#000000" transform="translate(0,0)"/>
<path d="" fill="#000000" transform="translate(0,0)"/>
<path d="" fill="#000000" transform="translate(0,0)"/>
<path d="" fill="#000000" transform="translate(0,0)"/>
<path d="" fill="#000000" transform="translate(0,0)"/>
<path d="" fill="#000000" transform="translate(0,0)"/>
<path d="" fill="#000000" transform="translate(0,0)"/>
<path d="" fill="#000000" transform="translate(0,0)"/>
<path d="" fill="#000000" transform="translate(0,0)"/>
<path d="" fill="#000000" transform="translate(0,0)"/>
<path d="" fill="#000000" transform="translate(0,0)"/>
<path d="" fill="#000000" transform="translate(0,0)"/>
<path d="" fill="#000000" transform="translate(0,0)"/>
<path d="" fill="#000000" transform="translate(0,0)"/>
<path d="" fill="#000000" transform="translate(0,0)"/>
<path d="" fill="#000000" transform="translate(0,0)"/>
<path d="" fill="#000000" transform="translate(0,0)"/>
<path d="" fill="#000000" transform="translate(0,0)"/>
<path d="" fill="#000000" transform="translate(0,0)"/>
<path d="" fill="#000000" transform="translate(0,0)"/>
<path d="" fill="#000000" transform="translate(0,0)"/>
<path d="" fill="#000000" transform="translate(0,0)"/>
<path d="" fill="#000000" transform="translate(0,0)"/>
<path d="" fill="#000000" transform="translate(0,0)"/>
<path d="" fill="#000000" transform="translate(0,0)"/>
<path d="" fill="#000000" transform="translate(0,0)"/>
<path d="" fill="#000000" transform="translate(0,0)"/>
<path d="" fill="#000000" transform="translate(0,0)"/>
<path d="" fill="#000000" transform="translate(0,0)"/>
<path d="" fill="#000000" transform="translate(0,0)"/>
<path d="" fill="#000000" transform="translate(0,0)"/>
<path d="" fill="#000000" transform="translate(0,0)"/>
<path d="" fill="#000000" transform="translate(0,0)"/>
<path d="" fill="#000000" transform="translate(0,0)"/>
<path d="" fill="#000000" transform="translate(0,0)"/>
<path d="" fill="#000000" transform="translate(0,0)"/>
<path d="" fill="#000000" transform="translate(0,0)"/>
<path d="" fill="#000000" transform="translate(0,0)"/>
<path d="" fill="#000000" transform="translate(0,0)"/>
<path d="" fill="#000000" transform="translate(0,0)"/>
<path d="" fill="#000000" transform="translate(0,0)"/>
<path d="" fill="#000000" transform="translate(0,0)"/>
<path d="" fill="#000000" transform="translate(0,0)"/>
<path d="" fill="#000000" transform="translate(0,0)"/>
<path d="" fill="#000000" transform="translate(0,0)"/>
<path d="" fill="#000000" transform="translate(0,0)"/>
<path d="" fill="#000000" transform="translate(0,0)"/>
<path d="" fill="#000000" transform="translate(0,0)"/>
<path d="" fill="#000000" transform="translate(0,0)"/>
<path d="" fill="#000000" transform="translate(0,0)"/>
<path d="" fill="#000000" transform="translate(0,0)"/>
<path d="" fill="#000000" transform="translate(0,0)"/>
<path d="" fill="#000000" transform="translate(0,0)"/>
<path d="" fill="#000000" transform="translate(0,0)"/>
<path d="" fill="#000000" transform="translate(0,0)"/>
<path d="" fill="#000000" transform="translate(0,0)"/>
<path d="" fill="#000000" transform="translate(0,0)"/>
<path d="" fill="#000000" transform="translate(0,0)"/>
<path d="" fill="#000000" transform="translate(0,0)"/>
<path d="" fill="#000000" transform="translate(0,0)"/>
<path d="" fill="#000000" transform="translate(0,0)"/>
<path d="" fill="#000000" transform="translate(0,0)"/>
<path d="" fill="#000000" transform="translate(0,0)"/>
<path d="" fill="#000000" transform="translate(0,0)"/>
<path d="" fill="#000000" transform="translate(0,0)"/>
<path d="" fill="#000000" transform="translate(0,0)"/>
<path d="" fill="#000000" transform="translate(0,0)"/>
<path d="" fill="#000000" transform="translate(0,0)"/>
<path d="" fill="#000000" transform="translate(0,0)"/>
<path d="" fill="#000000" transform="translate(0,0)"/>
<path d="" fill="#000000" transform="translate(0,0)"/>
<path d="" fill="#000000" transform="translate(0,0)"/>
<path d="" fill="#000000" transform="translate(0,0)"/>
<path d="" fill="#000000" transform="translate(0,0)"/>
<path d="" fill="#000000" transform="translate(0,0)"/>
<path d="" fill="#000000" transform="translate(0,0)"/>
<path d="" fill="#000000" transform="translate(0,0)"/>
<path d="" fill="#000000" transform="translate(0,0)"/>
<path d="" fill="#000000" transform="translate(0,0)"/>
<path d="" fill="#000000" transform="translate(0,0)"/>
<path d="" fill="#000000" transform="translate(0,0)"/>
<path d="" fill="#000000" transform="translate(0,0)"/>
<path d="" fill="#000000" transform="translate(0,0)"/>
<path d="" fill="#000000" transform="translate(0,0)"/>
<path d="" fill="#000000" transform="translate(0,0)"/>
<path d="" fill="#000000" transform="translate(0,0)"/>
<path d="" fill="#000000" transform="translate(0,0)"/>
<path d="" fill="#000000" transform="translate(0,0)"/>
<path d="" fill="#000000" transform="translate(0,0)"/>
<path d="" fill="#000000" transform="translate(0,0)"/>
<path d="" fill="#000000" transform="translate(0,0)"/>
<path d="" fill="#000000" transform="translate(0,0)"/>
<path d="" fill="#000000" transform="translate(0,0)"/>
<path d="" fill="#000000" transform="translate(0,0)"/>
<path d="" fill="#000000" transform="translate(0,0)"/>
<path d="" fill="#000000" transform="translate(0,0)"/>
<path d="" fill="#000000" transform="translate(0,0)"/>
<path d="" fill="#000000" transform="translate(0,0)"/>
<path d="" fill="#000000" transform="translate(0,0)"/>
<path d="" fill="#000000" transform="translate(0,0)"/>
<path d="" fill="#000000" transform="translate(0,0)"/>
<path d="" fill="#000000" transform="translate(0,0)"/>
<path d="" fill="#000000" transform="translate(0,0)"/>
<path d="" fill="#000000" transform="translate(0,0)"/>
<path d="" fill="#000000" transform="translate(0,0)"/>
<path d="" fill="#000000" transform="translate(0,0)"/>
<path d="" fill="#000000" transform="translate(0,0)"/>
<path d="" fill="#000000" transform="translate(0,0)"/>
<path d="" fill="#000000" transform="translate(0,0)"/>
<path d="" fill="#000000" transform="translate(0,0)"/>
<path d="" fill="#000000" transform="translate(0,0)"/>
<path d="" fill="#000000" transform="translate(0,0)"/>
<path d="" fill="#000000" transform="translate(0,0)"/>
<path d="" fill="#000000" transform="translate(0,0)"/>
<path d="" fill="#000000" transform="translate(0,0)"/>
<path d="" fill="#000000" transform="translate(0,0)"/>
<path d="" fill="#000000" transform="translate(0,0)"/>
<path d="" fill="#000000" transform="translate(0,0)"/>
<path d="" fill="#000000" transform="translate(0,0)"/>
<path d="" fill="#000000" transform="translate(0,0)"/>
<path d="" fill="#000000" transform="translate(0,0)"/>
<path d="" fill="#000000" transform="translate(0,0)"/>
<path d="" fill="#000000" transform="translate(0,0)"/>
<path d="" fill="#000000" transform="translate(0,0)"/>
<path d="" fill="#000000" transform="translate(0,0)"/>
<path d="" fill="#000000" transform="translate(0,0)"/>
<path d="" fill="#000000" transform="translate(0,0)"/>
<path d="" fill="#000000" transform="translate(0,0)"/>
<path d="" fill="#000000" transform="translate(0,0)"/>
<path d="" fill="#000000" transform="translate(0,0)"/>
<path d="" fill="#000000" transform="translate(0,0)"/>
<path d="" fill="#000000" transform="translate(0,0)"/>
<path d="" fill="#000000" transform="translate(0,0)"/>
<path d="" fill="#000000" transform="translate(0,0)"/>
<path d="" fill="#000000" transform="translate(0,0)"/>
<path d="" fill="#000000" transform="translate(0,0)"/>
<path d="" fill="#000000" transform="translate(0,0)"/>
<path d="" fill="#000000" transform="translate(0,0)"/>
<path d="" fill="#000000" transform="translate(0,0)"/>
<path d="" fill="#000000" transform="translate(0,0)"/>
<path d="" fill="#000000" transform="translate(0,0)"/>
<path d="" fill="#000000" transform="translate(0,0)"/>
<path d="" fill="#000000" transform="translate(0,0)"/>
<path d="" fill="#000000" transform="translate(0,0)"/>
<path d="" fill="#000000" transform="translate(0,0)"/>
<path d="" fill="#000000" transform="translate(0,0)"/>
<path d="" fill="#000000" transform="translate(0,0)"/>
<path d="" fill="#000000" transform="translate(0,0)"/>
<path d="" fill="#000000" transform="translate(0,0)"/>
<path d="" fill="#000000" transform="translate(0,0)"/>
<path d="" fill="#000000" transform="translate(0,0)"/>
<path d="" fill="#000000" transform="translate(0,0)"/>
<path d="" fill="#000000" transform="translate(0,0)"/>
<path d="" fill="#000000" transform="translate(0,0)"/>
<path d="" fill="#000000" transform="translate(0,0)"/>
<path d="" fill="#000000" transform="translate(0,0)"/>
<path d="" fill="#000000" transform="translate(0,0)"/>
<path d="" fill="#000000" transform="translate(0,0)"/>
<path d="" fill="#000000" transform="translate(0,0)"/>
<path d="" fill="#000000" transform="translate(0,0)"/>
<path d="" fill="#000000" transform="translate(0,0)"/>
<path d="" fill="#000000" transform="translate(0,0)"/>
<path d="" fill="#000000" transform="translate(0,0)"/>
<path d="" fill="#000000" transform="translate(0,0)"/>
<path d="" fill="#000000" transform="translate(0,0)"/>
<path d="" fill="#000000" transform="translate(0,0)"/>
<path d="" fill="#000000" transform="translate(0,0)"/>
<path d="" fill="#000000" transform="translate(0,0)"/>
<path d="" fill="#000000" transform="translate(0,0)"/>
<path d="" fill="#000000" transform="translate(0,0)"/>
<path d="" fill="#000000" transform="translate(0,0)"/>
<path d="" fill="#000000" transform="translate(0,0)"/>
<path d="" fill="#000000" transform="translate(0,0)"/>
<path d="" fill="#000000" transform="translate(0,0)"/>
<path d="" fill="#000000" transform="translate(0,0)"/>
<path d="" fill="#000000" transform="translate(0,0)"/>
<path d="" fill="#000000" transform="translate(0,0)"/>
<path d="" fill="#000000" transform="translate(0,0)"/>
<path d="" fill="#000000" transform="translate(0,0)"/>
<path d="" fill="#000000" transform="translate(0,0)"/>
<path d="" fill="#000000" transform="translate(0,0)"/>
<path d="" fill="#000000" transform="translate(0,0)"/>
<path d="" fill="#000000" transform="translate(0,0)"/>
<path d="" fill="#000000" transform="translate(0,0)"/>
<path d="" fill="#000000" transform="translate(0,0)"/>
<path d="" fill="#000000" transform="translate(0,0)"/>
<path d="" fill="#000000" transform="translate(0,0)"/>
<path d="" fill="#000000" transform="translate(0,0)"/>
<path d="" fill="#000000" transform="translate(0,0)"/>
<path d="" fill="#000000" transform="translate(0,0)"/>
<path d="" fill="#000000" transform="translate(0,0)"/>
<path d="" fill="#000000" transform="translate(0,0)"/>
<path d="" fill="#000000" transform="translate(0,0)"/>
<path d="" fill="#000000" transform="translate(0,0)"/>
<path d="" fill="#000000" transform="translate(0,0)"/>
<path d="" fill="#000000" transform="translate(0,0)"/>
<path d="" fill="#000000" transform="translate(0,0)"/>
<path d="" fill="#000000" transform="translate(0,0)"/>
<path d="" fill="#000000" transform="translate(0,0)"/>
<path d="" fill="#000000" transform="translate(0,0)"/>
<path d="" fill="#000000" transform="translate(0,0)"/>
<path d="" fill="#000000" transform="translate(0,0)"/>
<path d="" fill="#000000" transform="translate(0,0)"/>
<path d="" fill="#000000" transform="translate(0,0)"/>
<path d="" fill="#000000" transform="translate(0,0)"/>
<path d="" fill="#000000" transform="translate(0,0)"/>
<path d="" fill="#000000" transform="translate(0,0)"/>
<path d="" fill="#000000" transform="translate(0,0)"/>
<path d="" fill="#000000" transform="translate(0,0)"/>
<path d="" fill="#000000" transform="translate(0,0)"/>
<path d="" fill="#000000" transform="translate(0,0)"/>
<path d="" fill="#000000" transform="translate(0,0)"/>
<path d="" fill="#000000" transform="translate(0,0)"/>
<path d="" fill="#000000" transform="translate(0,0)"/>
<path d="" fill="#000000" transform="translate(0,0)"/>
<path d="" fill="#000000" transform="translate(0,0)"/>
<path d="" fill="#000000" transform="translate(0,0)"/>
<path d="" fill="#000000" transform="translate(0,0)"/>
<path d="" fill="#000000" transform="translate(0,0)"/>
<path d="" fill="#000000" transform="translate(0,0)"/>
<path d="" fill="#000000" transform="translate(0,0)"/>
<path d="" fill="#000000" transform="translate(0,0)"/>
<path d="" fill="#000000" transform="translate(0,0)"/>
<path d="" fill="#000000" transform="translate(0,0)"/>
<path d="" fill="#000000" transform="translate(0,0)"/>
<path d="" fill="#000000" transform="translate(0,0)"/>
<path d="" fill="#000000" transform="translate(0,0)"/>
<path d="" fill="#000000" transform="translate(0,0)"/>
<path d="" fill="#000000" transform="translate(0,0)"/>
<path d="" fill="#000000" transform="translate(0,0)"/>
<path d="" fill="#000000" transform="translate(0,0)"/>
<path d="" fill="#000000" transform="translate(0,0)"/>
<path d="" fill="#000000" transform="translate(0,0)"/>
<path d="" fill="#000000" transform="translate(0,0)"/>
<path d="" fill="#000000" transform="translate(0,0)"/>
<path d="" fill="#000000" transform="translate(0,0)"/>
<path d="" fill="#000000" transform="translate(0,0)"/>
<path d="" fill="#000000" transform="translate(0,0)"/>
<path d="" fill="#000000" transform="translate(0,0)"/>
<path d="" fill="#000000" transform="translate(0,0)"/>
<path d="" fill="#000000" transform="translate(0,0)"/>
<path d="" fill="#000000" transform="translate(0,0)"/>
<path d="" fill="#000000" transform="translate(0,0)"/>
<path d="" fill="#000000" transform="translate(0,0)"/>
<path d="" fill="#000000" transform="translate(0,0)"/>
<path d="" fill="#000000" transform="translate(0,0)"/>
<path d="" fill="#000000" transform="translate(0,0)"/>
<path d="" fill="#000000" transform="translate(0,0)"/>
<path d="" fill="#000000" transform="translate(0,0)"/>
<path d="" fill="#000000" transform="translate(0,0)"/>
<path d="" fill="#000000" transform="translate(0,0)"/>
<path d="" fill="#000000" transform="translate(0,0)"/>
<path d="" fill="#000000" transform="translate(0,0)"/>
<path d="" fill="#000000" transform="translate(0,0)"/>
<path d="" fill="#000000" transform="translate(0,0)"/>
<path d="" fill="#000000" transform="translate(0,0)"/>
<path d="" fill="#000000" transform="translate(0,0)"/>
<path d="" fill="#000000" transform="translate(0,0)"/>
<path d="" fill="#000000" transform="translate(0,0)"/>
<path d="" fill="#000000" transform="translate(0,0)"/>
<path d="" fill="#000000" transform="translate(0,0)"/>
<path d="" fill="#000000" transform="translate(0,0)"/>
<path d="" fill="#000000" transform="translate(0,0)"/>
<path d="" fill="#000000" transform="translate(0,0)"/>
<path d="" fill="#000000" transform="translate(0,0)"/>
<path d="" fill="#000000" transform="translate(0,0)"/>
<path d="" fill="#000000" transform="translate(0,0)"/>
<path d="" fill="#000000" transform="translate(0,0)"/>
<path d="" fill="#000000" transform="translate(0,0)"/>
<path d="" fill="#000000" transform="translate(0,0)"/>
<path d="" fill="#000000" transform="translate(0,0)"/>
<path d="" fill="#000000" transform="translate(0,0)"/>
<path d="" fill="#000000" transform="translate(0,0)"/>
<path d="" fill="#000000" transform="translate(0,0)"/>
<path d="" fill="#000000" transform="translate(0,0)"/>
<path d="" fill="#000000" transform="translate(0,0)"/>
<path d="" fill="#000000" transform="translate(0,0)"/>
<path d="" fill="#000000" transform="translate(0,0)"/>
<path d="" fill="#000000" transform="translate(0,0)"/>
<path d="" fill="#000000" transform="translate(0,0)"/>
<path d="" fill="#000000" transform="translate(0,0)"/>
<path d="" fill="#000000" transform="translate(0,0)"/>
<path d="" fill="#000000" transform="translate(0,0)"/>
<path d="" fill="#000000" transform="translate(0,0)"/>
<path d="" fill="#000000" transform="translate(0,0)"/>
<path d="" fill="#000000" transform="translate(0,0)"/>
<path d="" fill="#000000" transform="translate(0,0)"/>
<path d="" fill="#000000" transform="translate(0,0)"/>
<path d="" fill="#000000" transform="translate(0,0)"/>
<path d="" fill="#000000" transform="translate(0,0)"/>
</svg>
